#!OML:ASF E:\id_vita\Project 1\Capture day 1\Session 1\Female.ASF
:FULLY-SPECIFIED
:DEGREES
1109
root 21.6619 13.3154 -1.0639 -109.01 85.6945 -166.428
lowerback 0.486559 -0.5324 2.47906
upperback -1.85109 -0.641184 0.867087
thorax -2.18904 -0.350231 -0.48429
lowerneck 1.17365 -0.0816389 -8.07951
upperneck -10.1102 0.99972 13.5735
head -3.24219 0.357872 5.47679
rclavicle -9.74045e-015 -3.08116e-014
rhumerus 27.7937 36.2583 -63.3279
rradius 35.5089
rwrist 11.786
rhand -48.4208 -272.819
rfingers 7.12502
rthumb -21.0727 58.3057
lclavicle -9.74045e-015 -3.08116e-014
lhumerus 35.6406 -33.4296 55.0177
lradius 37.853
lwrist -20.8964
lhand -56.6086 80.5055
lfingers 7.12502
lthumb -28.9177 1691.72
rfemur -76.783 11.9734 27.8238
rtibia 82.6017
rfoot -28.869 -16.3799
rtoes -23.0157
lfemur -57.8002 14.0352 -20.2849
ltibia 88.6494
lfoot 18.308 -8.7453
ltoes 13.348
1110
root 21.7384 13.3403 -1.06051 -111.114 85.792 -168.234
lowerback 0.825164 -0.381854 2.27204
upperback -1.72127 -0.441072 0.709938
thorax -2.23981 -0.2487 -0.532777
lowerneck 1.37228 -0.193608 -7.88251
upperneck -10.4737 0.893985 13.6368
head -3.37048 0.28559 5.47206
rclavicle 1.18774e-014 2.83268e-015
rhumerus 27.627 35.7003 -63.3234
rradius 35.3586
rwrist 11.6801
rhand -48.1526 -271.782
rfingers 7.12502
rthumb -20.815 59.3144
lclavicle 1.18774e-014 2.83268e-015
lhumerus 36.1858 -33.8195 54.8988
lradius 37.8486
lwrist -20.8627
lhand -56.2819 80.0413
lfingers 7.12502
lthumb -28.6056 1692.13
rfemur -75.8766 11.7904 27.7649
rtibia 82.1819
rfoot -28.387 -18.1217
rtoes -26.2127
lfemur -58.9195 14.3331 -20.6125
ltibia 90.2639
lfoot 16.8524 -8.14455
ltoes 13.7893
1111
root 21.7961 13.3578 -1.05571 -113.844 85.8536 -170.909
lowerback 1.00265 -0.407071 2.02457
upperback -1.6616 -0.478117 0.672045
thorax -2.27712 -0.263903 -0.431031
lowerneck 0.531175 -0.337013 -7.56721
upperneck -9.93785 0.649729 13.1563
head -3.04412 0.206276 5.26173
rclavicle -3.51849e-014 -9.48203e-014
rhumerus 27.8827 35.7441 -63.0506
rradius 35.3208
rwrist 11.0674
rhand -47.6996 -270.968
rfingers 7.12502
rthumb -20.3797 60.0815
lclavicle -3.51849e-014 -9.48203e-014
lhumerus 36.4 -33.792 54.9635
lradius 37.7471
lwrist -20.6675
lhand -56.15 78.5
lfingers 7.12502
lthumb -28.4796 1693.65
rfemur -75.3765 11.5859 27.686
rtibia 81.8111
rfoot -28.6715 -17.2328
rtoes -24.7877
lfemur -60.4446 14.4963 -20.9921
ltibia 91.8617
lfoot 15.3756 -7.09815
ltoes 13.9226
1112
root 21.8377 13.372 -1.04948 -116.218 85.8998 -173.269
lowerback 1.34302 -0.541255 1.75433
upperback -1.76034 -0.654117 0.674101
thorax -2.57083 -0.349891 -0.268075
lowerneck 1.55906 -0.0219957 -8.38147
upperneck -10.7666 1.13213 13.7035
head -3.51691 0.410283 5.57722
rclavicle 1.90833e-014 1.20265e-014
rhumerus 27.9041 36.1014 -63.0797
rradius 35.3026
rwrist 10.7811
rhand -47.7756 -271.616
rfingers 7.12502
rthumb -20.4528 59.4412
lclavicle 1.90833e-014 1.20265e-014
lhumerus 36.1656 -33.6137 55.1887
lradius 37.4631
lwrist -20.9134
lhand -56.8225 79.9423
lfingers 7.12502
lthumb -29.122 1692.31
rfemur -75.0847 11.4038 27.6203
rtibia 81.4781
rfoot -28.3104 -17.7583
rtoes -22.2885
lfemur -62.0494 14.5947 -21.3203
ltibia 93.3945
lfoot 13.532 -6.37164
ltoes 14.3978
1113
root 21.8916 13.3906 -1.04199 -118.24 85.9147 -175.155
lowerback 1.69673 -0.520943 1.5217
upperback -1.8094 -0.629503 0.528002
thorax -2.81898 -0.336701 -0.284769
lowerneck 1.0404 -0.234488 -7.80683
upperneck -10.0786 0.790864 13.413
head -3.18675 0.255477 5.38399
rclavicle 4.96962e-016 -7.65321e-015
rhumerus 27.6588 35.9349 -63.3674
rradius 35.0024
rwrist 11.0778
rhand -48.1301 -272.265
rfingers 7.12502
rthumb -20.7934 58.829
lclavicle 4.96962e-016 -7.65321e-015
lhumerus 36.502 -33.9588 54.8594
lradius 37.062
lwrist -21.199
lhand -56.8358 80.7896
lfingers 7.12502
lthumb -29.1347 1691.47
rfemur -74.5352 11.2105 27.6307
rtibia 81.0867
rfoot -29.0305 -15.8135
rtoes -20.7886
lfemur -63.3991 14.693 -21.5263
ltibia 94.8382
lfoot 11.556 -5.69165
ltoes 15.0573
1114
root 21.9553 13.411 -1.03658 -120.444 86.006 -177.22
lowerback 1.92778 -0.602226 1.16436
upperback -1.81847 -0.747878 0.466266
thorax -2.95636 -0.390204 -0.140322
lowerneck 0.902789 -0.217489 -7.67213
upperneck -9.97462 0.823771 13.4497
head -3.13607 0.273448 5.3695
rclavicle 1.41137e-014 -5.36719e-015
rhumerus 27.579 35.7827 -63.8667
rradius 34.6518
rwrist 11.6919
rhand -48.1472 -271.47
rfingers 7.12502
rthumb -20.8098 59.6258
lclavicle 1.41137e-014 -5.36719e-015
lhumerus 36.5664 -33.7056 54.9578
lradius 36.8329
lwrist -20.9013
lhand -56.4722 80.9511
lfingers 7.12502
lthumb -28.7874 1691.25
rfemur -73.8369 10.9849 27.6257
rtibia 80.6323
rfoot -28.6783 -16.8324
rtoes -21.9286
lfemur -64.6676 14.7553 -21.7801
ltibia 96.1947
lfoot 9.60687 -5.12969
ltoes 15.4755
1115
root 22.0114 13.4277 -1.03751 -120.61 86.0321 -177.337
lowerback 2.0783 -0.639369 0.944204
upperback -1.86549 -0.801651 0.493935
thorax -3.08673 -0.412551 0.0160827
lowerneck 0.723893 -0.314852 -7.24507
upperneck -9.80733 0.634329 12.8472
head -3.03834 0.190245 5.10813
rclavicle -2.64384e-014 -5.43676e-014
rhumerus 27.4441 35.7621 -64.1749
rradius 34.544
rwrist 11.7317
rhand -47.7202 -270.722
rfingers 7.12502
rthumb -20.3995 60.3298
lclavicle -2.64384e-014 -5.43676e-014
lhumerus 35.3083 -32.6866 57.1081
lradius 36.343
lwrist -23.3779
lhand -56.5081 82.8861
lfingers 7.12502
lthumb -28.8217 1689.32
rfemur -73.2459 10.7856 27.7609
rtibia 80.1461
rfoot -28.5281 -17.7781
rtoes -23.9306
lfemur -66.0941 14.8681 -21.9487
ltibia 97.5374
lfoot 7.63515 -4.55833
ltoes 15.6846
1116
root 22.0666 13.4435 -1.03921 -119.245 85.9256 -175.926
lowerback 2.15192 -0.631932 0.919891
upperback -1.73398 -0.788699 0.659631
thorax -2.98991 -0.403369 0.199053
lowerneck -0.108199 -0.490888 -7.72634
upperneck -9.69024 0.474556 13.4606
head -2.84188 0.143412 5.38385
rclavicle 2.39536e-014 3.57812e-015
rhumerus 27.8687 35.9577 -63.5986
rradius 34.4828
rwrist 11.2473
rhand -47.0996 -271.589
rfingers 7.12502
rthumb -19.8031 59.3998
lclavicle 2.39536e-014 3.57812e-015
lhumerus 36.1549 -32.927 56.219
lradius 36.2118
lwrist -22.1582
lhand -56.627 81.8364
lfingers 7.12502
lthumb -28.9352 1690.39
rfemur -72.6974 10.5485 28.1336
rtibia 79.6569
rfoot -27.5031 -18.8276
rtoes -24.689
lfemur -67.5316 15.0071 -21.9454
ltibia 98.8246
lfoot 5.30572 -3.90476
ltoes 14.1821
1117
root 22.1288 13.4584 -1.03479 -120.858 85.9338 -177.344
lowerback 2.44379 -0.580907 0.797811
upperback -1.6716 -0.726267 0.537124
thorax -3.08992 -0.371539 0.141558
lowerneck 0.648561 -0.33211 -7.76188
upperneck -10.0501 0.676475 13.3745
head -3.09896 0.214309 5.36548
rclavicle 5.26779e-015 1.54058e-014
rhumerus 27.6884 35.6032 -63.8851
rradius 34.2866
rwrist 11.3917
rhand -47.6202 -271.147
rfingers 7.12502
rthumb -20.3034 59.894
lclavicle 5.26779e-015 1.54058e-014
lhumerus 36.4306 -33.0596 56.389
lradius 35.8902
lwrist -22.2672
lhand -56.5481 82.1012
lfingers 7.12502
lthumb -28.8599 1690.11
rfemur -71.936 10.239 28.3197
rtibia 79.1894
rfoot -27.4787 -18.2761
rtoes -25.6371
lfemur -68.6766 14.9468 -22.0133
ltibia 99.9837
lfoot 3.02236 -3.48764
ltoes 12.3755
1118
root 22.1893 13.4702 -1.02987 -122.965 86.0065 -179.255
lowerback 2.69536 -0.606005 0.438779
upperback -1.68285 -0.774385 0.462453
thorax -3.23971 -0.38905 0.271625
lowerneck 0.692181 -0.351662 -7.41133
upperneck -9.87948 0.61108 13.0779
head -3.05058 0.178264 5.21087
rclavicle 3.97569e-016 -2.47487e-014
rhumerus 27.4088 35.3273 -64.4706
rradius 34.0965
rwrist 11.7371
rhand -47.398 -271.023
rfingers 7.12502
rthumb -20.0898 59.9954
lclavicle 3.97569e-016 -2.47487e-014
lhumerus 36.2019 -33.1073 56.7084
lradius 35.6931
lwrist -22.2993
lhand -56.9163 82.7892
lfingers 7.12502
lthumb -29.2116 1689.48
rfemur -71.175 9.99379 28.3558
rtibia 78.7397
rfoot -27.4122 -18.4215
rtoes -25.92
lfemur -69.8073 14.831 -22.1104
ltibia 101.083
lfoot 0.867131 -3.33445
ltoes 10.8267
1119
root 22.2485 13.4885 -1.03172 -121.681 86.0809 -177.978
lowerback 2.71586 -0.530281 0.323005
upperback -1.64281 -0.676615 0.510556
thorax -3.20812 -0.337186 0.38052
lowerneck 0.637027 -0.253529 -7.4479
upperneck -9.75548 0.697938 12.7372
head -3.01564 0.235986 5.10571
rclavicle 2.51463e-014 5.05907e-014
rhumerus 27.4791 35.1446 -64.4166
rradius 33.8784
rwrist 11.7754
rhand -46.5047 -271.356
rfingers 7.12502
rthumb -19.2311 59.5749
lclavicle 2.51463e-014 5.05907e-014
lhumerus 36.2633 -33.1484 57.0077
lradius 35.4445
lwrist -22.1106
lhand -57.614 81.7183
lfingers 7.12502
lthumb -29.8776 1690.67
rfemur -70.7784 9.854 28.4977
rtibia 78.291
rfoot -26.967 -19.3525
rtoes -26.9712
lfemur -71.1693 14.8435 -22.175
ltibia 102.065
lfoot -0.905013 -2.76246
ltoes 10.3319
1120
root 22.3058 13.507 -1.03775 -117.206 86.0641 -173.612
lowerback 2.66456 -0.343212 0.506062
upperback -1.62306 -0.417669 0.554675
thorax -3.16082 -0.21117 0.308645
lowerneck 0.072725 -0.407952 -7.70322
upperneck -9.41931 0.50418 13.0444
head -2.7991 0.163359 5.24493
rclavicle -4.80562e-014 -6.82825e-014
rhumerus 27.6646 35.0151 -63.9996
rradius 33.6259
rwrist 11.5238
rhand -46.9977 -270.079
rfingers 7.12502
rthumb -19.7051 60.9002
lclavicle -4.80562e-014 -6.82825e-014
lhumerus 36.6596 -33.1601 57.2353
lradius 35.0812
lwrist -22.377
lhand -57.0767 81.9459
lfingers 7.12502
lthumb -29.3648 1690.35
rfemur -70.5066 9.81231 28.8208
rtibia 77.8395
rfoot -26.7519 -12.4202
rtoes -13.3105
lfemur -72.7405 14.9937 -22.1095
ltibia 103.015
lfoot -3.26008 -2.63923
ltoes 6.79937
